<svg width="20" height="17" viewBox="0 0 20 17" fill="none" xmlns="http://www.w3.org/2000/svg">
<path fill-rule="evenodd" clip-rule="evenodd" d="M7.18536 0.0734575C7.3836 0.171586 7.29624 0.196119 6.81366 0.176843L6.18324 0.151873L6.20592 1.73245L6.22818 3.31302H4.80186H3.37554L3.339 1.74384L3.30246 0.174653L1.68462 0.175091H0.0667802L0.0331802 8.41572L0 16.6559L0.40194 16.7483C0.62286 16.7987 1.38054 16.7974 2.0853 16.7444L3.36714 16.6489V15.1108V13.5732H4.78674H6.20634L6.24288 15.1594L6.27942 16.7457H12.6214H18.9634L19.0012 15.0788C19.0252 14.0389 18.9874 13.3471 18.9013 13.2389C18.7921 13.1018 17.4926 13.069 12.679 13.083L6.59484 13.1005L6.63138 11.714L6.6675 10.3275L11.8448 10.3038C14.6924 10.2907 17.4762 10.2565 18.031 10.228L19.0403 10.1763L19.0021 8.46566L18.9634 6.75542L18.3809 6.6678C18.0608 6.61917 15.2796 6.58895 12.2006 6.60034L6.60282 6.62049V5.23661V3.85317L12.6538 3.85098C15.9818 3.84966 18.779 3.79929 18.8706 3.73927C18.9945 3.65691 19.0268 3.19343 19 1.90417L18.9634 0.179034L17.1515 0.135226C10.7058 -0.0198526 6.951 -0.0430705 7.18536 0.0734575ZM6.21474 8.44288V9.79303H4.79094H3.36714V8.44288V7.09317H4.79094H6.21474V8.44288Z" fill="#0A0A0A"/>
</svg>
